<?xml version="1.0" encoding="utf-8"?>
<!-- Generator: Adobe Illustrator 26.5.0, SVG Export Plug-In . SVG Version: 6.00 Build 0)  -->
<svg version="1.1" id="_x2014_ÎÓÈ_x5F_1" xmlns="http://www.w3.org/2000/svg" xmlns:xlink="http://www.w3.org/1999/xlink"
	 x="0px" y="0px" viewBox="100 100 371 371" style="enable-background:new 0 0 371 371;" xml:space="preserve">
<style type="text/css">
	.st0{fill:#231F20;}
	.st1{
		fill:#FFFFFF;
		filter: drop-shadow(-2px 0px 1px pink);
		}
</style>
<rect class="st0" width="371" height="371"/>
<g>
	<path class="st1" id="node1" d="m247.7,89.1c0" />
	<path class="st1" d="M274.7,89.1c0,0,1.4,1.5,4.1,4.4c2.6,3,6.5,7.4,10.6,13.6c4.2,6.1,8.7,13.9,12.6,23.6c0.9,2.4,1.9,4.8,2.7,7.5
		c0.4,1.3,0.9,2.6,1.3,4c0.4,1.4,0.8,2.7,1.1,4.1c1.4,5.6,2.6,11.6,3.2,17.9c0.2,1.6,0.3,3.2,0.4,4.8c0.1,0.8,0.1,1.6,0.2,2.4
		c0,0.8,0,1.6,0.1,2.5c0,1.7,0.1,3.3,0.1,5c0,1.7-0.1,3.3-0.1,5c-0.4,6.9-1.3,13.9-2.8,21c-1.6,7.1-3.8,14.2-6.8,21.3
		c-0.8,1.7-1.5,3.5-2.3,5.2c-0.9,1.7-1.8,3.5-2.6,5.2c-0.9,1.7-1.9,3.4-2.9,5.1c-1,1.7-2.1,3.3-3.2,5c-8.7,13.2-20.3,25.2-34.1,34.5
		c-13.7,9.4-29.6,16.1-46.2,19.3c-8.3,1.6-16.7,2.4-25.1,2.3c-2.1-0.1-4.2-0.1-6.3-0.2c-2.1-0.2-4.2-0.3-6.3-0.5
		c-2.1-0.3-4.1-0.5-6.2-0.8c-2-0.4-4.1-0.7-6.1-1.1c-16.3-3.4-31.5-10.1-44.5-19c-13.1-8.9-23.9-20-32.1-31.9
		c-4.1-5.9-7.6-12.1-10.5-18.2c-2.9-6.2-5.1-12.3-6.9-18.4c-3.5-12.1-4.7-23.7-4.8-33.9c-0.1-10.2,1.2-19.1,2.7-26.3
		c1.5-7.2,3.4-12.7,4.7-16.4c1.4-3.7,2.2-5.6,2.2-5.6s-0.8,2-2.2,5.6c-1.2,3.7-3.1,9.2-4.6,16.4c-1.5,7.2-2.7,16.1-2.6,26.3
		c0.1,10.2,1.4,21.8,5,33.8c1.8,6,4.1,12.2,6.9,18.3c2.9,6.1,6.4,12.2,10.6,18.1c8.2,11.8,19,22.8,32.1,31.5
		c13,8.8,28.1,15.4,44.2,18.7c2,0.4,4,0.7,6.1,1.1c2,0.3,4.1,0.5,6.1,0.8c2.1,0.2,4.1,0.3,6.2,0.5c2.1,0.1,4.2,0.1,6.3,0.2
		c8.3,0,16.7-0.8,24.8-2.4c16.4-3.2,32-10,45.5-19.3c13.5-9.3,24.9-21.2,33.4-34.2c1-1.7,2.1-3.3,3.1-4.9c0.9-1.7,1.9-3.3,2.8-5
		c0.9-1.7,1.7-3.4,2.5-5.1c0.8-1.8,1.5-3.5,2.3-5.2c2.8-6.9,5-14,6.5-21c1.5-7,2.4-13.9,2.7-20.6c0-1.7,0.1-3.4,0.1-5
		c0-1.6-0.1-3.3-0.1-4.9c0-0.8,0-1.6-0.1-2.4c-0.1-0.8-0.1-1.6-0.2-2.4c-0.1-1.6-0.2-3.2-0.4-4.7c-0.6-6.2-1.9-12.1-3.3-17.6
		c-0.4-1.4-0.8-2.7-1.1-4c-0.4-1.3-0.8-2.6-1.3-3.9c-0.8-2.5-1.8-5-2.7-7.4c-3.8-9.3-8.4-17-12.5-23c-4.1-6-7.9-10.3-10.4-13.2
		c-2.7-2.8-4.2-4.4-4.2-4.4L274.7,89.1z"/>
</g>
<g>
	<g>
		<path class="st1" d="M230.5,71.9c0,0,1.8,0.9,5.1,2.6c3.3,1.9,8.2,4.5,13.9,8.7c5.7,4.1,12.3,9.6,18.9,16.9
			c1.6,1.8,3.3,3.7,4.9,5.8c0.8,1,1.7,2.1,2.4,3.2c0.8,1.1,1.6,2.2,2.4,3.3c3.1,4.6,6.1,9.5,8.7,14.9c0.7,1.3,1.3,2.8,1.9,4.1
			c0.3,0.7,0.6,1.4,0.9,2.1c0.3,0.7,0.6,1.4,0.9,2.2c0.6,1.5,1.2,2.9,1.7,4.5c0.5,1.5,1,3,1.5,4.5c1.9,6.3,3.4,12.8,4.3,19.7
			c0.9,6.9,1.2,13.9,0.9,21.2c-0.1,1.8-0.3,3.6-0.4,5.4c-0.2,1.8-0.4,3.7-0.7,5.5c-0.3,1.8-0.6,3.7-0.9,5.5
			c-0.3,1.8-0.8,3.7-1.2,5.5c-3.5,14.6-10,29.1-19.2,41.9c-9.2,12.8-21.2,24-35,32.2c-6.9,4.1-14.1,7.5-21.7,10.2
			c-1.9,0.6-3.8,1.3-5.7,1.8c-1.9,0.5-3.8,1.1-5.8,1.6c-1.9,0.4-3.9,0.9-5.8,1.3c-2,0.3-3.9,0.7-5.8,1c-15.6,2.2-31.4,1.2-45.9-2.5
			c-14.5-3.7-27.8-10.1-39-18c-5.6-4-10.7-8.3-15.3-12.8c-4.6-4.6-8.6-9.4-12.1-14.2c-7.1-9.7-11.9-19.6-15.3-28.7
			c-3.4-9.1-5.1-17.5-6.1-24.4c-1-6.9-1.1-12.4-1.2-16.1C61.9,177,62,175,62,175s0,2-0.1,5.7c0.1,3.7,0.2,9.2,1.3,16.1
			c1,6.9,2.8,15.2,6.3,24.3c3.4,9.1,8.3,19,15.4,28.6c3.5,4.8,7.6,9.6,12.1,14.1c4.6,4.5,9.7,8.8,15.3,12.7
			c11.2,7.8,24.4,14.1,38.9,17.7c14.4,3.6,30.1,4.6,45.5,2.3c1.9-0.3,3.9-0.7,5.8-1c1.9-0.4,3.8-0.9,5.7-1.3
			c1.9-0.5,3.8-1.1,5.7-1.6c1.9-0.6,3.8-1.3,5.6-1.9c7.4-2.7,14.6-6.1,21.4-10.2c13.6-8.2,25.3-19.3,34.3-32
			c9-12.7,15.4-27,18.7-41.4c0.4-1.8,0.8-3.6,1.1-5.4c0.3-1.8,0.6-3.6,0.9-5.4c0.2-1.8,0.4-3.6,0.6-5.4c0.1-1.8,0.2-3.6,0.4-5.4
			c0.3-7.1-0.1-14.1-1-20.8c-0.9-6.7-2.4-13.2-4.3-19.3c-0.5-1.5-1-3-1.5-4.5c-0.5-1.4-1.1-2.9-1.7-4.3c-0.3-0.7-0.6-1.4-0.9-2.1
			c-0.3-0.7-0.6-1.4-0.9-2.1c-0.6-1.4-1.2-2.8-1.9-4.1c-2.6-5.3-5.6-10.1-8.6-14.6c-0.8-1.1-1.6-2.2-2.3-3.2c-0.8-1.1-1.6-2-2.4-3
			c-1.5-2-3.2-3.9-4.8-5.7c-6.4-7.1-13-12.4-18.6-16.4c-5.6-4.1-10.4-6.6-13.6-8.4c-3.4-1.7-5.1-2.5-5.1-2.5L230.5,71.9z"/>
	</g>
</g>
<g>
	<g>
		<path class="st1" d="M188.2,67.8c0,0,1.9,0.2,5.4,0.6c3.6,0.6,8.8,1.3,15.2,3.2c6.4,1.8,14.1,4.6,22.4,9c2,1.1,4.1,2.2,6.2,3.6
			c1,0.7,2.2,1.3,3.2,2c1,0.7,2.1,1.5,3.2,2.2c4.2,3.1,8.5,6.5,12.6,10.5c1.1,1,2,2,3.1,3.1c0.5,0.5,1,1.1,1.5,1.6
			c0.5,0.5,1,1.1,1.5,1.7c1,1.1,2,2.2,3,3.4c0.9,1.2,1.9,2.4,2.8,3.6c3.7,5,7.2,10.3,10.2,16.2c3,5.8,5.6,12,7.7,18.7
			c0.5,1.6,0.9,3.3,1.4,5c0.4,1.7,0.8,3.4,1.2,5.1c0.4,1.7,0.6,3.5,1,5.2c0.3,1.7,0.5,3.5,0.7,5.3c1.6,14.2,0.5,29.2-3.5,43.7
			c-4.1,14.4-11.1,28.3-20.7,40.1c-4.8,5.9-10.2,11.3-16,16.2c-1.5,1.2-2.9,2.4-4.4,3.5c-1.5,1.1-3.1,2.2-4.6,3.3
			c-1.6,1-3.2,2.1-4.8,3c-1.6,0.9-3.2,1.9-4.9,2.8c-13.2,7.1-27.6,11.3-41.8,12.6c-14.2,1.4-28.1,0-40.7-3.4
			c-6.3-1.7-12.3-3.9-17.8-6.5c-5.6-2.6-10.7-5.6-15.4-8.7c-9.5-6.3-17-13.7-23-20.7c-6-7-10.3-13.9-13.4-19.8
			c-3.2-5.8-5-10.7-6.3-14c-1.1-3.4-1.7-5.2-1.7-5.2s0.6,1.8,1.8,5.1c1.3,3.3,3.2,8.2,6.4,14c3.2,5.8,7.5,12.6,13.5,19.7
			c6,7,13.6,14.2,23.1,20.5c4.7,3.1,9.9,6.1,15.4,8.6c5.6,2.5,11.5,4.7,17.8,6.4c12.5,3.4,26.4,4.7,40.5,3.2
			c14.1-1.5,28.3-5.7,41.4-12.8c1.6-0.9,3.2-1.8,4.8-2.8c1.6-1,3.1-2,4.7-3c1.5-1,3-2.2,4.6-3.3c1.5-1.1,2.9-2.3,4.4-3.5
			c5.7-4.8,11.1-10.2,15.8-16.1c9.4-11.7,16.3-25.5,20.3-39.7c4-14.3,4.9-29.1,3.3-43.1c-0.3-1.7-0.4-3.5-0.7-5.2
			c-0.3-1.7-0.6-3.4-1-5.1c-0.4-1.7-0.8-3.3-1.2-5c-0.5-1.7-1-3.3-1.4-4.9c-2-6.4-4.6-12.6-7.7-18.3c-3-5.7-6.4-11-10.1-15.8
			c-1-1.2-1.9-2.4-2.8-3.6c-0.9-1.1-1.9-2.2-2.9-3.3c-0.5-0.5-1-1.1-1.5-1.6c-0.5-0.5-1-1-1.5-1.5c-1-1-2-2.1-3-3
			c-4-3.9-8.3-7.2-12.5-10.2c-1.1-0.7-2.1-1.4-3.1-2.1c-1-0.7-2.1-1.3-3.1-1.9c-2-1.3-4.2-2.4-6.2-3.5c-8.1-4.2-15.6-6.9-21.9-8.6
			c-6.3-1.8-11.4-2.5-14.9-3.1c-3.5-0.4-5.4-0.6-5.4-0.6L188.2,67.8z"/>
	</g>
</g>
<g>
	<g>
		<path class="st1" d="M150.9,77.7c0,0,1.7-0.4,5-1.2c3.4-0.6,8.3-1.7,14.6-2.1c6.3-0.5,14.1-0.5,22.9,0.7c2.2,0.4,4.4,0.6,6.7,1.2
			c1.2,0.3,2.3,0.5,3.5,0.8c1.2,0.3,2.4,0.6,3.6,0.9c4.8,1.4,9.7,3,14.7,5.3c1.3,0.5,2.5,1.2,3.7,1.8c0.6,0.3,1.3,0.6,1.9,0.9
			c0.6,0.3,1.2,0.7,1.9,1c1.2,0.7,2.5,1.3,3.8,2.1c1.2,0.7,2.4,1.5,3.7,2.3c4.9,3.2,9.8,6.9,14.4,11.1c4.6,4.2,8.9,8.9,12.9,14.2
			c1,1.3,1.9,2.6,2.9,4c0.9,1.4,1.8,2.8,2.7,4.2c0.9,1.4,1.7,2.9,2.6,4.3c0.8,1.5,1.6,3,2.4,4.5c6.1,12.2,10,25.9,11,40.1
			c1.1,14.2-0.7,28.9-5.5,42.6c-2.4,6.8-5.4,13.4-9.1,19.7c-3.6,6.2-7.9,12-12.7,17.3c-9.5,10.6-21,19-33.2,24.9
			c-12.2,5.9-25.1,9.2-37.4,10.2c-6.2,0.5-12.2,0.5-18,0c-5.8-0.5-11.4-1.5-16.6-2.8c-10.5-2.6-19.6-6.7-27.3-11
			c-7.6-4.3-13.7-9.1-18.4-13.3c-4.7-4.2-7.9-8-10.2-10.5c-2.1-2.6-3.2-4-3.2-4s1.1,1.4,3.3,4c2.2,2.5,5.5,6.3,10.2,10.4
			c4.7,4.2,10.8,8.9,18.4,13.2c7.6,4.3,16.8,8.3,27.2,10.8c5.2,1.3,10.8,2.2,16.6,2.7c5.8,0.4,11.8,0.4,17.9-0.1
			c12.3-1.1,25.1-4.4,37.1-10.3c12.1-5.9,23.4-14.3,32.8-24.8c4.7-5.3,8.8-11,12.5-17.2c3.6-6.1,6.6-12.7,8.9-19.5
			c4.6-13.5,6.3-28,5.2-42c-1.1-14-5-27.6-11.1-39.5c-0.8-1.5-1.5-3-2.4-4.4c-0.9-1.4-1.7-2.9-2.5-4.3c-0.9-1.4-1.8-2.7-2.7-4.1
			c-1-1.3-1.9-2.6-2.9-3.9c-3.9-5.1-8.2-9.7-12.8-13.8c-4.5-4.1-9.3-7.7-14.1-10.8c-1.2-0.8-2.5-1.5-3.7-2.2c-1.2-0.7-2.5-1.4-3.7-2
			c-0.6-0.3-1.2-0.7-1.8-1c-0.6-0.3-1.2-0.6-1.9-0.9c-1.2-0.6-2.4-1.2-3.7-1.7c-4.9-2.2-9.8-3.8-14.4-5.1c-1.2-0.3-2.3-0.6-3.5-0.9
			c-1.1-0.3-2.3-0.5-3.4-0.7c-2.2-0.5-4.5-0.8-6.6-1.1c-8.6-1.2-16.2-1.1-22.4-0.6c-6.2,0.4-11,1.5-14.3,2.1c-3.3,0.8-5,1.2-5,1.2
			L150.9,77.7z"/>
	</g>
</g>
<g>
	<g>
		<path class="st1" d="M121.4,101.5c0,0,1.4-0.9,4.1-2.7c2.8-1.7,6.9-4.2,12.4-6.6c5.5-2.5,12.4-5,20.7-6.8c2-0.4,4.1-0.9,6.4-1.1
			c1.1-0.1,2.2-0.4,3.4-0.5c1.1-0.1,2.3-0.2,3.5-0.3c4.7-0.3,9.7-0.5,14.8-0.1c1.3,0,2.6,0.2,3.9,0.4c0.7,0.1,1.3,0.1,2,0.2
			c0.7,0.1,1.3,0.2,2,0.3c1.3,0.2,2.7,0.4,4,0.7c1.3,0.3,2.7,0.5,4,0.8c5.5,1.3,11,3,16.4,5.3c5.5,2.3,10.9,5.1,16.1,8.4
			c1.3,0.9,2.6,1.7,3.8,2.6c1.3,0.9,2.5,1.9,3.8,2.9c1.2,1,2.5,2,3.7,3c1.2,1,2.4,2.2,3.6,3.2c9.4,8.9,17.3,19.9,22.9,32.2
			c5.6,12.3,8.7,26,8.9,39.8c0.1,6.9-0.5,13.7-1.7,20.5c-1.2,6.7-3.2,13.3-5.7,19.6c-5,12.6-12.6,23.8-21.6,33
			c-9,9.2-19.4,16.3-30.1,21.2c-5.3,2.5-10.8,4.4-16.1,5.9c-5.4,1.4-10.6,2.4-15.7,2.9c-10.2,1.1-19.7,0.4-27.9-0.9
			c-8.2-1.4-15.2-3.7-20.7-5.9c-5.6-2.2-9.7-4.5-12.5-6c-2.7-1.7-4.2-2.5-4.2-2.5s1.5,0.9,4.2,2.5c2.8,1.5,6.9,3.8,12.5,6
			c5.6,2.2,12.5,4.4,20.7,5.8c8.2,1.3,17.7,1.9,27.8,0.8c5.1-0.6,10.3-1.5,15.7-3c5.3-1.5,10.7-3.4,16-5.9
			c10.6-4.9,21-12.1,29.8-21.3c8.9-9.2,16.3-20.4,21.2-32.8c4.9-12.4,7.4-26.1,7.1-39.7c-0.3-13.6-3.5-27.1-9-39.2
			c-5.5-12.2-13.5-23-22.7-31.7c-1.2-1.1-2.3-2.2-3.5-3.2c-1.2-1-2.4-2-3.6-3c-1.2-0.9-2.5-1.8-3.7-2.8c-1.3-0.9-2.6-1.7-3.9-2.6
			c-5.1-3.3-10.5-6-15.9-8.2c-5.4-2.2-10.8-3.9-16.1-5.1c-1.4-0.3-2.7-0.5-4-0.8c-1.3-0.3-2.6-0.4-3.9-0.6c-0.7-0.1-1.3-0.2-2-0.3
			c-0.7-0.1-1.3-0.1-1.9-0.2c-1.3-0.1-2.6-0.3-3.8-0.3c-5.1-0.4-9.9-0.2-14.5,0.1c-1.1,0.1-2.3,0.2-3.4,0.3
			c-1.1,0.1-2.2,0.3-3.3,0.5c-2.1,0.3-4.3,0.8-6.3,1.2c-8,1.7-14.8,4.3-20.2,6.7c-5.4,2.4-9.3,4.9-12,6.5c-2.7,1.8-4.1,2.7-4.1,2.7
			L121.4,101.5z"/>
	</g>
</g>
<g>
	<g>
		<path class="st1" d="M102.9,136.6c0,0,1-1.3,2.8-3.7c2-2.4,4.8-6,8.9-9.9c4.1-4,9.4-8.5,16.3-12.8c1.7-1,3.4-2.1,5.3-3.1
			c0.9-0.5,1.9-1,2.9-1.5c1-0.5,2-0.9,3-1.4c4.1-1.8,8.5-3.6,13.2-4.9c1.2-0.4,2.4-0.6,3.6-1c0.6-0.2,1.2-0.3,1.8-0.5
			c0.6-0.1,1.2-0.3,1.9-0.4c1.3-0.2,2.5-0.5,3.8-0.7c1.3-0.2,2.6-0.4,3.9-0.6c5.3-0.6,10.8-0.9,16.4-0.7c5.6,0.2,11.4,1,17.2,2.3
			c1.4,0.4,2.8,0.7,4.3,1.1c1.4,0.4,2.9,0.9,4.3,1.3c1.4,0.5,2.8,1,4.3,1.5c1.4,0.5,2.8,1.2,4.2,1.7c11.2,4.9,21.9,12.1,30.9,21.4
			c9,9.2,16.2,20.4,20.9,32.6c4.7,12.2,6.9,25.3,6.4,38.2c-0.4,12.8-3.5,25.3-8.5,36.5c-5,11.1-12,20.9-20,28.7
			c-4,3.9-8.2,7.4-12.5,10.5c-4.3,3-8.7,5.6-13.1,7.7c-8.8,4.3-17.4,6.8-25.2,8.2c-7.8,1.4-14.7,1.7-20.4,1.5
			c-5.7-0.1-10.1-0.9-13.1-1.3c-3-0.6-4.6-0.9-4.6-0.9s1.6,0.3,4.6,0.9c3,0.4,7.4,1.2,13.1,1.3c5.7,0.1,12.6-0.1,20.4-1.6
			c7.8-1.5,16.4-4,25.1-8.3c4.3-2.2,8.7-4.7,13-7.7c4.3-3.1,8.4-6.5,12.3-10.5c7.9-7.9,14.8-17.6,19.7-28.7
			c5-11.1,7.9-23.5,8.3-36.2c0.4-12.7-1.9-25.7-6.5-37.7c-4.7-12-11.9-23-20.8-32.1c-8.9-9.1-19.5-16.1-30.6-20.9
			c-1.4-0.6-2.8-1.2-4.2-1.7c-1.4-0.5-2.8-1-4.2-1.5c-1.4-0.4-2.8-0.8-4.2-1.3c-1.4-0.4-2.9-0.7-4.3-1.1c-5.6-1.2-11.3-1.9-16.8-2.1
			c-5.5-0.2-10.9,0.1-16.1,0.7c-1.3,0.2-2.6,0.4-3.9,0.6c-1.2,0.2-2.5,0.5-3.7,0.7c-0.6,0.1-1.2,0.2-1.8,0.4
			c-0.6,0.2-1.2,0.3-1.8,0.5c-1.2,0.3-2.4,0.6-3.5,1c-4.6,1.3-8.9,3.1-12.9,4.9c-1,0.5-2,0.9-2.9,1.4c-1,0.5-1.9,1-2.8,1.5
			c-1.8,0.9-3.6,2.1-5.3,3.1c-6.6,4.2-11.8,8.7-15.8,12.6c-4,3.9-6.8,7.4-8.6,9.7c-1.8,2.5-2.8,3.8-2.8,3.8L102.9,136.6z"/>
	</g>
</g>
<g>
	<g>
		<path class="st1" d="M94.3,171.1c0,0,0.4-1.5,1.3-4.2c1-2.8,2.3-6.9,4.7-11.8c2.4-4.9,5.7-10.7,10.4-16.7c2.3-2.9,5-6,8-9
			c3.1-2.9,6.4-5.9,10.2-8.7c0.9-0.7,1.9-1.3,2.9-2c1-0.7,2-1.3,3-2c1.1-0.6,2.1-1.3,3.2-1.9c1.1-0.6,2.2-1.2,3.3-1.8
			c4.5-2.3,9.3-4.3,14.4-5.9c5.1-1.6,10.5-2.8,16.1-3.5c1.4-0.1,2.8-0.3,4.2-0.4c1.4-0.1,2.8-0.2,4.3-0.2c1.4,0,2.9,0,4.3,0
			c1.4,0,2.9,0.1,4.3,0.2c11.6,0.7,23.5,3.7,34.5,9c11,5.3,21.1,12.9,29.3,22.3c8.1,9.4,14.4,20.4,18.1,32
			c3.8,11.6,5.1,23.8,4.2,35.3c-0.9,11.6-4,22.6-8.5,32.2c-2.3,4.8-4.9,9.3-7.7,13.4c-2.9,4.1-6,7.8-9.2,11.1
			c-6.4,6.7-13.4,11.7-19.8,15.5c-6.5,3.8-12.6,6.3-17.7,7.9c-5.1,1.7-9.3,2.5-12.1,3.1c-2.9,0.4-4.4,0.7-4.4,0.7s1.5-0.2,4.4-0.7
			c2.8-0.6,7-1.4,12.1-3.1c5.1-1.7,11.2-4.2,17.7-8c6.4-3.8,13.3-8.9,19.7-15.6c3.2-3.3,6.3-7.1,9.1-11.1c2.8-4.1,5.4-8.6,7.6-13.4
			c4.5-9.6,7.5-20.5,8.3-32c0.8-11.5-0.6-23.5-4.4-35c-3.8-11.5-10-22.3-18.1-31.5c-8.1-9.2-18.1-16.7-29-21.9
			c-10.9-5.2-22.6-8.1-34.1-8.7c-1.4,0-2.9-0.1-4.3-0.1c-1.4,0-2.8,0-4.2,0.1c-1.4,0.1-2.8,0.2-4.2,0.3c-1.4,0.2-2.8,0.3-4.2,0.5
			c-5.4,0.7-10.7,1.9-15.7,3.6c-5,1.6-9.7,3.6-14.1,5.9c-1.1,0.6-2.2,1.2-3.3,1.8c-1,0.6-2.1,1.2-3.1,1.9c-1,0.6-2,1.3-3,1.9
			c-1,0.7-1.9,1.3-2.8,2c-3.7,2.7-7,5.6-10,8.5c-0.7,0.7-1.4,1.5-2.2,2.2c-0.7,0.7-1.3,1.5-2,2.2c-1.3,1.4-2.5,3-3.7,4.5
			c-4.5,5.9-7.7,11.6-10,16.4c-2.3,4.8-3.6,8.8-4.5,11.5c-0.8,2.8-1.2,4.3-1.2,4.3L94.3,171.1z"/>
	</g>
</g>
<g>
	<g>
		<path class="st1" d="M96.5,203c0,0-0.1-1.5-0.3-4.2c0-2.8-0.2-6.9,0.4-12c0.5-5.2,1.6-11.4,3.8-18.3c1.1-3.4,2.5-7,4.3-10.6
			c1.8-3.6,3.8-7.4,6.3-11c0.6-0.9,1.3-1.8,1.9-2.7c0.7-0.9,1.3-1.8,2.1-2.7c0.7-0.9,1.4-1.8,2.2-2.7c0.8-0.9,1.6-1.7,2.3-2.6
			c3.3-3.5,6.9-6.9,10.9-10c4-3.1,8.4-5.9,13.2-8.4c1.2-0.6,2.4-1.2,3.6-1.7c1.2-0.5,2.5-1.1,3.7-1.6c1.3-0.5,2.6-1,3.8-1.4
			c1.3-0.5,2.6-0.8,3.9-1.3c10.6-3.1,22.2-4.3,33.8-3.2c11.5,1.2,23.1,4.7,33.4,10.4c10.3,5.7,19.4,13.5,26.6,22.7
			c7.2,9.1,12.3,19.5,15.2,30.2c3,10.6,3.8,21.4,2.9,31.5c-0.5,5-1.3,9.9-2.5,14.5c-1.2,4.6-2.8,8.9-4.6,12.9
			c-3.6,8.1-8.1,14.8-12.7,20.3c-4.6,5.5-9.2,9.7-13.3,12.9c-4,3.2-7.5,5.2-9.8,6.7c-2.4,1.3-3.7,2-3.7,2s1.3-0.7,3.7-2
			c2.3-1.5,5.8-3.5,9.8-6.7c4-3.2,8.6-7.4,13.2-12.9c4.5-5.5,9-12.3,12.5-20.3c1.7-4,3.3-8.3,4.5-12.9c1.2-4.6,2-9.4,2.5-14.4
			c0.9-10,0-20.7-3-31.3c-3-10.5-8.1-20.8-15.3-29.8c-7.1-9-16.2-16.7-26.4-22.3c-10.2-5.6-21.6-9-33-10.1
			c-11.4-1.1-22.8,0.1-33.2,3.3c-1.3,0.4-2.6,0.8-3.9,1.3c-1.3,0.5-2.5,0.9-3.8,1.4c-1.2,0.5-2.4,1.1-3.6,1.6
			c-1.2,0.6-2.4,1.2-3.6,1.8c-4.6,2.4-9,5.2-12.9,8.3c-3.9,3.1-7.5,6.4-10.7,9.8c-0.8,0.9-1.6,1.8-2.3,2.6c-0.7,0.8-1.4,1.8-2.1,2.7
			c-0.7,0.9-1.4,1.8-2,2.7c-0.6,0.9-1.3,1.8-1.9,2.7c-2.4,3.6-4.4,7.3-6.1,10.9c-1.7,3.6-3,7.1-4.1,10.5c-2.1,6.7-3.1,12.8-3.6,17.9
			c-0.5,5.1-0.4,9-0.3,11.7c0.2,2.7,0.3,4.2,0.3,4.2L96.5,203z"/>
	</g>
</g>
<g>
	<g>
		<path class="st1" d="M110,230c0,0-0.6-1.3-1.6-3.7c-0.9-2.5-2.4-6.1-3.6-10.9c-1.2-4.8-2.3-10.7-2.5-17.6c-0.1-3.4,0-7.1,0.3-10.9
			c0.4-3.8,1-7.8,2-11.9c0.2-1,0.6-2,0.8-3.1c0.3-1,0.6-2.1,1-3.1c0.4-1,0.7-2.1,1.1-3.1c0.4-1,0.8-2.1,1.2-3.1
			c1.8-4.2,3.9-8.4,6.5-12.4c2.6-4.1,5.6-8,9.1-11.8c0.9-0.9,1.8-1.8,2.6-2.7c0.9-0.9,1.9-1.8,2.8-2.6c1-0.9,2-1.7,3-2.5
			c1-0.8,2.1-1.6,3.1-2.4c8.5-6.3,18.4-11.1,29.1-13.8c10.7-2.7,22.1-3.3,33.2-1.5c11.1,1.8,21.7,5.8,31.1,11.6
			c9.4,5.8,17.3,13.5,23.4,22c6.1,8.5,10.3,17.9,12.8,27.2c1.2,4.6,2,9.2,2.4,13.7c0.4,4.5,0.4,8.9,0.1,13
			c-0.6,8.4-2.4,15.9-4.7,22.3c-2.3,6.4-5.1,11.7-7.7,15.8c-2.5,4.2-5,7.1-6.6,9.2c-1.7,2-2.6,3-2.6,3s0.9-1.1,2.6-3
			c1.6-2.1,4-5,6.6-9.2c2.5-4.1,5.3-9.4,7.6-15.8c2.2-6.4,4.1-13.9,4.6-22.2c0.3-4.2,0.2-8.5-0.2-13c-0.4-4.5-1.3-9.1-2.5-13.7
			c-2.5-9.2-6.7-18.5-12.8-26.9c-6.1-8.4-14-15.9-23.3-21.7c-9.3-5.7-19.9-9.6-30.8-11.3c-10.9-1.7-22.2-1-32.7,1.7
			c-10.5,2.7-20.3,7.5-28.6,13.7c-1,0.8-2.1,1.6-3,2.4c-1,0.8-2,1.7-2.9,2.5c-0.9,0.9-1.8,1.7-2.7,2.6c-0.9,0.9-1.8,1.8-2.6,2.7
			c-3.3,3.7-6.3,7.6-8.8,11.6c-2.5,4-4.6,8.1-6.3,12.2c-0.4,1-0.8,2.1-1.2,3.1c-0.4,1-0.7,2.1-1.1,3.1c-0.4,1-0.7,2-0.9,3.1
			c-0.3,1-0.6,2-0.8,3c-1,4-1.6,7.9-1.9,11.7c-0.3,3.8-0.4,7.3-0.3,10.7c0.3,6.7,1.4,12.5,2.6,17.1c1.2,4.7,2.6,8.2,3.5,10.6
			c1.1,2.4,1.6,3.7,1.6,3.7L110,230z"/>
	</g>
</g>
<g>
	<g>
		<path class="st1" d="M133.9,249.2c0,0-0.9-1-2.6-2.8c-1.6-1.9-4.1-4.7-6.7-8.6c-2.6-3.9-5.5-8.8-8-14.9c-1.2-3-2.3-6.3-3.2-9.8
			c-0.9-3.5-1.7-7.3-2-11.3c-0.1-1-0.2-2-0.3-3c-0.1-1-0.1-2-0.2-3.1c0-1-0.1-2.1,0-3.2c0-1,0.1-2.1,0.1-3.2
			c0.2-4.3,0.8-8.8,1.8-13.2c1-4.5,2.4-9,4.3-13.4c0.5-1.1,1-2.2,1.5-3.3c0.6-1.1,1.1-2.2,1.7-3.3c0.6-1.1,1.2-2.1,1.8-3.2
			c0.6-1.1,1.3-2.1,2-3.2c5.5-8.3,12.8-15.9,21.5-21.8c8.7-5.9,18.7-10.1,29.1-12.2c10.4-2,21.3-1.9,31.5,0.2
			c10.2,2.2,19.8,6.4,28,12c8.2,5.6,15,12.6,20.2,20.1c2.6,3.7,4.8,7.6,6.6,11.5c1.8,3.9,3.2,7.8,4.3,11.6c2.2,7.6,3,14.9,3,21.4
			c0,6.5-0.8,12.1-1.7,16.6c-0.9,4.5-2.2,8-2.9,10.3c-0.9,2.3-1.4,3.5-1.4,3.5s0.5-1.2,1.4-3.5c0.8-2.4,2-5.8,2.9-10.3
			c0.9-4.5,1.7-10.1,1.6-16.6c-0.1-6.4-0.9-13.7-3.1-21.3c-1.1-3.8-2.6-7.7-4.4-11.5c-1.8-3.8-4.1-7.7-6.7-11.4
			c-5.2-7.4-12-14.3-20.2-19.9c-8.2-5.5-17.7-9.7-27.9-11.8c-10.2-2.1-20.9-2.1-31.2-0.1c-10.3,2-20.2,6.3-28.7,12.2
			c-8.5,5.9-15.7,13.3-21.1,21.6c-0.6,1-1.3,2.1-1.9,3.1c-0.6,1.1-1.2,2.1-1.8,3.2c-0.5,1.1-1.1,2.1-1.6,3.2c-0.5,1.1-1,2.2-1.5,3.3
			c-1.8,4.3-3.2,8.8-4.1,13.2c-0.9,4.4-1.5,8.8-1.7,13c0,1.1,0,2.1-0.1,3.2c0,1,0,2.1,0.1,3.1c0,1,0.1,2,0.2,3c0.1,1,0.1,2,0.3,3
			c0.4,3.9,1.2,7.6,2.1,11.1c0.9,3.5,2,6.6,3.2,9.6c2.4,5.9,5.3,10.7,7.9,14.5c2.6,3.8,5,6.5,6.6,8.3c1.7,1.8,2.6,2.7,2.6,2.7
			L133.9,249.2z"/>
	</g>
</g>
<g>
	<g>
		<path class="st1" d="M161.8,260c0,0-1.1-0.6-3.2-1.6c-2.1-1.2-5.2-2.8-8.8-5.5c-3.6-2.6-7.8-6.1-11.9-10.7c-2-2.3-4.1-4.9-6.1-7.7
			c-1.9-2.9-3.9-6-5.5-9.4c-0.5-0.8-0.8-1.7-1.2-2.6c-0.4-0.9-0.8-1.8-1.1-2.7c-0.3-0.9-0.7-1.8-1.1-2.8c-0.3-0.9-0.6-1.9-1-2.9
			c-1.2-3.9-2.1-8.1-2.7-12.4c-0.6-4.3-0.8-8.8-0.6-13.4c0.1-1.1,0.2-2.3,0.2-3.4c0.1-1.2,0.3-2.3,0.4-3.5c0.2-1.2,0.4-2.3,0.6-3.5
			c0.2-1.2,0.5-2.3,0.7-3.5c2.2-9.2,6.3-18.3,12.1-26.4c5.8-8.1,13.4-15.1,22-20.3c8.7-5.2,18.4-8.6,28.2-10
			c9.8-1.4,19.8-0.7,28.9,1.6c9.2,2.3,17.5,6.4,24.6,11.4c3.5,2.5,6.8,5.2,9.7,8.1c2.9,2.9,5.4,5.9,7.6,8.9
			c4.5,6.1,7.5,12.4,9.7,18.1c2.1,5.7,3.2,11,3.9,15.4c0.7,4.4,0.7,7.8,0.7,10.2c-0.1,2.4-0.1,3.6-0.1,3.6s0-1.3,0.1-3.6
			c-0.1-2.3-0.1-5.8-0.8-10.2c-0.7-4.3-1.8-9.6-3.9-15.3c-2.2-5.7-5.3-12-9.7-18c-2.2-3-4.8-6-7.7-8.9c-2.9-2.8-6.1-5.5-9.6-8
			c-7-4.9-15.4-8.9-24.5-11.2c-9.1-2.3-19-2.9-28.7-1.4c-9.7,1.4-19.3,4.9-27.9,10.1c-8.5,5.2-16,12.2-21.6,20.2
			c-5.7,8-9.7,17-11.8,26.1c-0.2,1.1-0.5,2.3-0.7,3.4c-0.2,1.1-0.4,2.3-0.6,3.4c-0.1,1.1-0.3,2.3-0.4,3.4c-0.1,1.1-0.2,2.3-0.2,3.4
			c-0.2,4.5,0,8.9,0.6,13.1c0.6,4.2,1.5,8.3,2.7,12.1c0.3,1,0.6,1.9,1,2.9c0.3,0.9,0.7,1.8,1.1,2.7c0.3,0.9,0.7,1.8,1.1,2.7
			c0.4,0.9,0.8,1.7,1.2,2.6c1.6,3.4,3.5,6.4,5.4,9.2c1.9,2.8,4,5.3,6,7.6c4.1,4.5,8.2,7.8,11.7,10.4c3.5,2.6,6.6,4.2,8.6,5.3
			c2.1,1,3.2,1.6,3.2,1.6L161.8,260z"/>
	</g>
</g>
<g>
	<g>
		<path class="st1" d="M188.4,262.6c0,0-1.2-0.1-3.4-0.4c-2.2-0.4-5.5-0.8-9.6-2c-4.1-1.2-8.9-2.9-14.1-5.7c-2.5-1.4-5.3-3-7.9-4.9
			c-2.7-1.9-5.4-4.1-8-6.6c-0.7-0.6-1.3-1.3-1.9-1.9c-0.6-0.7-1.3-1.3-1.9-2c-0.6-0.7-1.3-1.4-1.9-2.2c-0.6-0.7-1.2-1.5-1.8-2.2
			c-2.4-3.1-4.5-6.5-6.4-10.2c-1.9-3.7-3.6-7.6-4.9-11.8c-0.3-1-0.6-2.1-0.9-3.1c-0.3-1.1-0.5-2.1-0.8-3.2c-0.2-1.1-0.4-2.2-0.6-3.3
			c-0.2-1.1-0.3-2.2-0.5-3.3c-1-9-0.3-18.4,2.2-27.5c2.6-9.1,7-17.8,13.1-25.3c6-7.5,13.6-13.7,21.9-18.1c8.3-4.5,17.4-7.1,26.3-8
			c8.9-0.9,17.7,0,25.6,2.2c4,1.1,7.7,2.5,11.2,4.1c3.5,1.6,6.7,3.5,9.7,5.5c6,4,10.7,8.6,14.5,13c3.8,4.4,6.5,8.8,8.4,12.5
			c2,3.7,3.1,6.8,4,8.8c0.7,2.1,1.1,3.2,1.1,3.2s-0.4-1.1-1.1-3.2c-0.8-2.1-2-5.2-4-8.8c-2-3.7-4.7-8-8.5-12.4
			c-3.8-4.4-8.6-9-14.5-12.9c-3-2-6.2-3.8-9.7-5.4c-3.5-1.6-7.3-3-11.2-4c-7.9-2.1-16.6-3-25.5-2c-8.9,0.9-17.9,3.6-26.1,8
			c-8.2,4.4-15.7,10.6-21.6,18c-5.9,7.4-10.3,16-12.8,25c-2.5,9-3.1,18.3-2.1,27.1c0.2,1.1,0.3,2.2,0.5,3.3c0.2,1.1,0.4,2.2,0.6,3.2
			c0.3,1.1,0.5,2.1,0.8,3.2c0.3,1,0.6,2.1,0.9,3.1c1.3,4,2.9,7.9,4.8,11.5c1.9,3.6,4.1,6.9,6.4,10c0.6,0.8,1.2,1.5,1.8,2.2
			c0.6,0.7,1.2,1.4,1.8,2.1c0.6,0.7,1.2,1.4,1.9,2c0.6,0.6,1.2,1.3,1.9,1.9c2.5,2.5,5.2,4.6,7.8,6.5c2.6,1.9,5.2,3.4,7.8,4.8
			c5.1,2.7,9.9,4.3,13.8,5.5c4,1.1,7.2,1.6,9.4,1.9c2.2,0.2,3.4,0.4,3.4,0.4L188.4,262.6z"/>
	</g>
</g>
<g>
	<g>
		<path class="st1" d="M212,256.4c0,0-1.1,0.3-3.2,0.8c-2.1,0.4-5.2,1-9.2,1.3c-4,0.3-8.9,0.3-14.4-0.5c-2.7-0.4-5.7-1-8.7-1.8
			c-3-0.9-6.1-1.9-9.3-3.3c-3.1-1.4-6.3-3.1-9.4-5.1c-3.1-2-6.2-4.4-9.1-7c-2.9-2.7-5.6-5.6-8.2-8.9c-2.5-3.2-4.7-6.9-6.6-10.7
			c-3.8-7.7-6.3-16.3-6.9-25.3c-0.7-9,0.5-18.2,3.4-26.8c3-8.6,7.7-16.6,13.7-23.3c6-6.7,13.2-12,20.9-15.7
			c7.7-3.7,15.8-5.8,23.6-6.4c3.9-0.3,7.7-0.3,11.4,0c3.7,0.3,7.2,0.9,10.5,1.8c6.6,1.6,12.4,4.2,17.2,6.9c4.8,2.7,8.6,5.7,11.6,8.4
			c3,2.6,5,5,6.4,6.6c1.3,1.7,2,2.5,2,2.5s-0.7-0.9-2.1-2.5c-1.4-1.6-3.5-4-6.4-6.6c-3-2.6-6.8-5.6-11.6-8.3
			c-4.8-2.7-10.6-5.2-17.2-6.8c-3.3-0.8-6.8-1.4-10.4-1.7c-3.6-0.3-7.4-0.3-11.3,0.1c-7.7,0.7-15.8,2.8-23.4,6.5
			c-7.6,3.7-14.8,9-20.7,15.7c-5.9,6.6-10.5,14.6-13.4,23.1c-2.9,8.5-4,17.7-3.3,26.5c0.7,8.8,3.2,17.4,7,24.9
			c1.9,3.8,4.1,7.3,6.6,10.5c2.5,3.2,5.2,6.1,8,8.7c2.9,2.6,5.9,4.9,8.9,6.8c3.1,2,6.2,3.6,9.3,4.9c3.1,1.4,6.2,2.4,9.1,3.2
			c3,0.8,5.8,1.3,8.5,1.7c5.4,0.7,10.2,0.7,14.1,0.4c3.9-0.3,6.9-0.9,9-1.3c2.1-0.5,3.2-0.8,3.2-0.8L212,256.4z"/>
	</g>
</g>
<g>
	<g>
		<path class="st1" d="M230.5,241.4c0,0-0.9,0.6-2.6,1.7c-1.8,1-4.3,2.6-7.8,4.2c-3.5,1.6-7.8,3.2-13,4.3c-2.5,0.5-5.4,1-8.3,1.2
			c-3,0.2-6.1,0.3-9.4,0c-3.2-0.2-6.7-0.7-10-1.5c-3.4-0.8-6.9-1.9-10.4-3.3c-3.5-1.4-6.9-3.2-10.2-5.3c-3.3-2.1-6.5-4.6-9.4-7.4
			c-5.9-5.6-10.9-12.5-14.4-20.3c-3.5-7.8-5.5-16.4-5.6-25.1c-0.2-8.7,1.5-17.3,4.7-25.2c3.2-7.9,7.9-15,13.6-20.8
			c5.7-5.8,12.2-10.3,19-13.4c3.4-1.6,6.8-2.8,10.1-3.7c3.4-0.9,6.7-1.5,9.9-1.8c6.4-0.7,12.4-0.3,17.6,0.6
			c5.2,0.9,9.6,2.3,13.1,3.7c3.5,1.4,6.1,2.9,7.9,3.8c1.7,1,2.6,1.6,2.6,1.6s-0.9-0.6-2.7-1.6c-1.8-0.9-4.4-2.4-7.9-3.8
			c-3.5-1.4-7.9-2.8-13.1-3.6c-5.2-0.8-11.1-1.2-17.5-0.5c-3.2,0.4-6.5,1-9.9,1.9c-3.3,0.9-6.7,2.2-10.1,3.7
			c-6.7,3.1-13.2,7.6-18.8,13.4c-5.6,5.8-10.3,12.8-13.4,20.7c-3.1,7.8-4.7,16.4-4.5,25c0.2,8.6,2.2,17.1,5.7,24.7
			c3.5,7.7,8.5,14.5,14.3,20c2.9,2.8,6,5.1,9.3,7.2c3.2,2.1,6.6,3.8,10,5.2c3.4,1.4,6.8,2.4,10.2,3.2c3.4,0.8,6.7,1.2,9.9,1.4
			c3.2,0.2,6.3,0.1,9.2-0.1c2.9-0.2,5.6-0.7,8.2-1.2c5.1-1.1,9.3-2.7,12.7-4.3c3.4-1.5,5.9-3.1,7.6-4.1c1.7-1.1,2.6-1.7,2.6-1.7
			L230.5,241.4z"/>
	</g>
</g>
<g>
	<g>
		<path class="st1" d="M242.2,219.3c0,0-0.6,0.8-1.8,2.3c-0.6,0.7-1.3,1.7-2.2,2.8c-1,1-2.1,2.2-3.3,3.5c-1.3,1.3-2.9,2.5-4.5,4
			c-0.4,0.4-0.9,0.7-1.3,1c-0.5,0.3-0.9,0.7-1.4,1c-1,0.7-1.9,1.4-3,2.1c-2.1,1.3-4.5,2.6-7.1,3.8c-2.6,1.1-5.3,2.2-8.3,3.1
			c-3,0.8-6.2,1.5-9.4,2c-3.3,0.4-6.8,0.6-10.3,0.4c-3.6-0.2-7.1-0.6-10.8-1.4c-1.8-0.5-3.6-1-5.4-1.5c-1.8-0.6-3.6-1.4-5.4-2.1
			c-7.1-3.1-13.8-7.6-19.5-13.5c-5.7-5.8-10.2-12.8-13.2-20.5c-3-7.7-4.3-16-4-24c0.1-4,0.7-8,1.6-11.9c0.6-1.9,1-3.8,1.6-5.7
			c0.7-1.8,1.4-3.7,2.1-5.4c3.2-7,7.6-13.2,12.6-18.1c0.3-0.3,0.6-0.6,0.9-0.9l1-0.9c0.7-0.6,1.3-1.1,2-1.7c0.7-0.5,1.3-1.2,2-1.6
			c0.7-0.5,1.4-1,2-1.4c2.6-2,5.5-3.5,8.2-4.9c5.5-2.7,11-4.3,15.9-5.2c4.9-0.9,9.3-1,12.9-0.9c3.6,0.1,6.4,0.6,8.3,0.8
			c1.9,0.4,2.9,0.6,2.9,0.6s-1-0.2-2.9-0.6c-1.9-0.3-4.7-0.7-8.3-0.8c-3.6-0.1-7.9,0.1-12.8,1c-4.9,0.9-10.3,2.5-15.8,5.3
			c-2.7,1.4-5.5,2.9-8.2,4.9c-0.7,0.5-1.3,1-2,1.4c-0.7,0.5-1.3,1.1-1.9,1.6c-0.6,0.6-1.3,1.1-1.9,1.7l-1,0.9
			c-0.3,0.3-0.6,0.6-0.9,0.9c-5,4.9-9.4,11.1-12.4,18.1c-0.8,1.8-1.4,3.6-2.1,5.4c-0.6,1.8-1.1,3.8-1.6,5.7
			c-0.9,3.8-1.4,7.8-1.5,11.8c-0.2,8,1.2,16.2,4.1,23.8c2.9,7.6,7.5,14.5,13.1,20.2l2.2,2l1.1,1c0.4,0.3,0.7,0.7,1.1,1
			c0.8,0.6,1.6,1.2,2.4,1.8l1.2,0.9l0.6,0.5l0.6,0.4c0.8,0.5,1.7,1,2.5,1.6l1.2,0.8c0.4,0.3,0.8,0.5,1.3,0.7
			c1.7,0.8,3.4,1.8,5.2,2.5c1.8,0.7,3.5,1.4,5.3,2c1.8,0.5,3.6,1,5.4,1.5c3.5,0.8,7.1,1.2,10.6,1.4c3.5,0.1,6.9,0,10.1-0.5
			c3.3-0.4,6.3-1.1,9.3-2c2.9-0.8,5.6-1.9,8.2-3.1c2.5-1.2,4.8-2.4,6.9-3.8c1-0.7,2-1.4,2.9-2.1c0.5-0.3,0.9-0.7,1.4-1
			c0.5-0.3,0.9-0.6,1.3-1c1.6-1.4,3.1-2.7,4.4-3.9c1.2-1.3,2.3-2.4,3.2-3.4c0.9-1,1.6-2,2.2-2.8c1.2-1.5,1.8-2.3,1.8-2.3
			L242.2,219.3z"/>
	</g>
</g>
<g>
	<g>
		<path class="st1" d="M247.6,197.5c0,0-0.3,0.9-0.9,2.7c-0.3,0.9-0.6,1.9-1.1,3.2c-0.5,1.2-1.2,2.6-1.8,4.2c-0.7,1.6-1.7,3.2-2.7,5
			c-0.5,0.9-1.2,1.8-1.8,2.7c-0.7,0.9-1.3,1.9-2,2.9c-0.8,0.9-1.6,1.8-2.4,2.8c-0.4,0.5-0.8,1-1.3,1.4c-0.5,0.5-1,0.9-1.4,1.4
			c-0.5,0.5-1,0.9-1.5,1.4c-0.5,0.5-1,1-1.6,1.4c-1.1,0.9-2.2,1.8-3.4,2.7c-1.2,0.9-2.5,1.6-3.8,2.5c-0.7,0.4-1.3,0.9-2,1.2
			c-0.7,0.4-1.4,0.7-2.1,1.1c-1.4,0.7-2.8,1.5-4.4,2c-0.8,0.3-1.5,0.6-2.3,0.9c-0.8,0.3-1.6,0.6-2.4,0.8c-1.6,0.4-3.3,1-4.9,1.3
			c-1.7,0.3-3.4,0.6-5.2,0.9c-1.7,0.1-3.5,0.3-5.3,0.4c-1.8,0-3.6-0.1-5.5-0.1c-7.3-0.5-14.8-2.3-21.8-5.7c-1.7-0.8-3.4-1.9-5.1-2.8
			c-1.6-1-3.2-2.2-4.8-3.3c-1.5-1.2-3-2.5-4.5-3.8c-1.4-1.4-2.7-2.8-4.1-4.2c-1.2-1.5-2.5-3-3.6-4.6c-1-1.7-2.1-3.3-3.1-4.9
			c-0.9-1.7-1.8-3.4-2.6-5.2c-0.7-1.8-1.4-3.6-2.1-5.4c-0.5-1.9-1.1-3.7-1.5-5.5c-0.2-0.9-0.3-1.9-0.5-2.8l-0.2-1.4L134,190
			c0-0.3,0-0.5-0.1-0.7c-0.1-1.9-0.3-3.7-0.4-5.6c0.1-1.9,0-3.7,0.2-5.5c0.5-7.3,2.5-14.2,5.4-20.3c2.9-6,6.6-11.2,10.6-15.5
			c1.1-1,2.1-2,3.1-3c1-0.9,2.1-1.7,3.2-2.6c0.5-0.4,1-0.8,1.5-1.2c0.5-0.4,1.1-0.7,1.6-1c1.1-0.7,2.1-1.3,3.1-2
			c1-0.6,2.1-1.1,3-1.6c1-0.5,1.9-1,2.9-1.4c1.9-0.7,3.7-1.5,5.3-2c1.6-0.5,3.1-0.9,4.4-1.2c1.3-0.3,2.4-0.5,3.3-0.6
			c1.8-0.3,2.7-0.5,2.7-0.5s-1,0.2-2.7,0.5c-0.9,0.2-2,0.3-3.3,0.7c-1.3,0.4-2.7,0.8-4.4,1.2c-1.6,0.5-3.3,1.3-5.2,2
			c-1,0.4-1.9,0.9-2.9,1.4c-1,0.5-2,1-3,1.6c-1,0.6-2,1.3-3.1,2c-0.5,0.3-1.1,0.7-1.6,1.1c-0.5,0.4-1,0.8-1.5,1.2
			c-1,0.8-2.1,1.6-3.2,2.6c-1,1-2,2-3.1,3c-4,4.2-7.7,9.4-10.5,15.4c-2.8,6-4.8,12.9-5.2,20.2c-0.1,1.8-0.1,3.6-0.1,5.5
			c0,1.8,0.3,3.7,0.4,5.6c0,0.2,0,0.5,0.1,0.7l0.1,0.7l0.3,1.4c0.2,0.9,0.3,1.8,0.5,2.8c0.4,1.8,1,3.6,1.5,5.5
			c0.6,1.8,1.4,3.5,2.1,5.3c0.8,1.7,1.8,3.4,2.6,5.2c1,1.6,2.1,3.2,3.1,4.9c1.2,1.5,2.4,3,3.6,4.5c1.3,1.4,2.7,2.8,4,4.1
			c1.5,1.2,3,2.5,4.5,3.7c1.6,1.1,3.1,2.2,4.8,3.2c1.7,0.9,3.3,1.9,5,2.7c0.9,0.4,1.7,0.7,2.6,1.1l1.3,0.6c0.4,0.2,0.9,0.4,1.3,0.5
			c0.9,0.3,1.8,0.6,2.7,0.9l1.3,0.4l0.7,0.2l0.7,0.1c1.8,0.4,3.6,0.8,5.4,1.1c1.8,0.2,3.6,0.5,5.4,0.6c1.8,0,3.6,0.1,5.4,0.1
			c1.8-0.1,3.5-0.3,5.3-0.4c1.7-0.3,3.4-0.6,5.1-0.9c1.7-0.4,3.3-0.9,4.8-1.3c0.8-0.2,1.6-0.5,2.3-0.8c0.8-0.3,1.5-0.6,2.2-0.9
			c1.5-0.5,2.9-1.3,4.3-2c0.7-0.4,1.4-0.7,2.1-1.1c0.6-0.3,1.3-0.8,1.9-1.2c1.2-0.8,2.5-1.6,3.7-2.5c1.1-0.9,2.2-1.8,3.3-2.6
			c0.6-0.4,1-0.9,1.5-1.4c0.5-0.5,1-0.9,1.4-1.4c0.5-0.5,0.9-0.9,1.4-1.4c0.5-0.4,0.8-1,1.3-1.4c0.8-1,1.6-1.9,2.4-2.8
			c0.7-0.9,1.3-1.9,1.9-2.8c0.6-0.9,1.3-1.7,1.7-2.6c1-1.8,1.9-3.4,2.6-4.9c0.7-1.5,1.2-2.9,1.8-4.1c0.5-1.2,0.8-2.3,1.1-3.2
			c0.6-1.7,0.8-2.7,0.8-2.7L247.6,197.5z"/>
	</g>
</g>
<g>
	<g>
		<path class="st1" d="M246.2,177.4c0,0,0,0.9,0.1,2.7c0,0.9,0.1,1.9,0.1,3.2c-0.1,1.3-0.2,2.7-0.3,4.4c-0.2,1.6-0.5,3.4-0.8,5.3
			c-0.1,1-0.5,1.9-0.7,3c-0.3,1-0.5,2.1-0.9,3.2c-0.4,1.1-0.8,2.1-1.2,3.3c-0.2,0.6-0.4,1.1-0.7,1.7c-0.3,0.6-0.5,1.1-0.8,1.7
			c-0.3,0.6-0.6,1.2-0.9,1.7c-0.3,0.6-0.6,1.2-0.9,1.8c-0.7,1.1-1.4,2.3-2.2,3.5c-0.8,1.2-1.7,2.3-2.5,3.4c-0.5,0.6-0.8,1.2-1.4,1.7
			c-0.5,0.5-1,1.1-1.5,1.6c-1,1.1-2,2.2-3.2,3.2c-0.6,0.5-1.2,1-1.8,1.6c-0.6,0.5-1.2,1.1-1.9,1.5c-1.3,0.9-2.6,1.9-4,2.8
			c-1.4,0.8-2.8,1.7-4.3,2.5c-1.5,0.7-3,1.4-4.6,2.1c-1.6,0.6-3.3,1.1-4.9,1.7c-6.7,2-14,2.7-21.3,2c-7.3-0.7-14.5-2.9-21-6.6
			c-1.6-1-3.2-1.9-4.7-2.9c-1.5-1.1-3-2.2-4.4-3.4c-1.3-1.3-2.7-2.5-4-3.8c-1.2-1.4-2.5-2.7-3.6-4.2c-1-1.5-2.2-2.9-3.1-4.5
			c-0.5-0.8-0.9-1.6-1.4-2.3l-0.7-1.2c-0.2-0.4-0.5-0.8-0.6-1.2c-0.7-1.6-1.5-3.2-2.2-4.9c-0.6-1.7-1.2-3.3-1.7-5
			c-1.9-6.7-2.4-13.5-1.8-19.8c0.6-6.3,2.3-12.2,4.5-17.3c0.6-1.2,1.2-2.5,1.8-3.7c0.6-1.2,1.4-2.2,2-3.3c0.3-0.5,0.7-1.1,1-1.6
			c0.4-0.5,0.7-1,1.1-1.5c0.7-1,1.4-1.9,2.1-2.8c0.7-0.9,1.5-1.6,2.2-2.4c0.7-0.8,1.4-1.5,2.1-2.2c1.5-1.3,2.8-2.5,4-3.5
			c1.3-0.9,2.5-1.8,3.5-2.5c1-0.7,2-1.2,2.7-1.6c1.5-0.9,2.3-1.3,2.3-1.3s-0.8,0.5-2.3,1.3c-0.7,0.5-1.7,0.9-2.7,1.7
			c-1,0.7-2.2,1.6-3.5,2.5c-1.3,1-2.6,2.2-4,3.5c-0.7,0.6-1.4,1.4-2.1,2.2c-0.7,0.8-1.5,1.6-2.2,2.4c-0.7,0.9-1.4,1.8-2.1,2.8
			c-0.4,0.5-0.7,1-1.1,1.5c-0.3,0.5-0.6,1.1-1,1.6c-0.6,1.1-1.4,2.2-2,3.3c-0.6,1.2-1.2,2.4-1.8,3.7c-2.2,5.1-3.8,10.9-4.4,17.2
			c-0.6,6.3,0,13.1,1.9,19.7c0.5,1.6,1.1,3.3,1.7,4.9c0.6,1.6,1.5,3.2,2.2,4.8c0.2,0.4,0.4,0.8,0.6,1.2l0.7,1.2
			c0.5,0.8,0.9,1.5,1.4,2.3c1,1.5,2.1,2.9,3.1,4.4c1.1,1.4,2.4,2.7,3.6,4.1c1.3,1.3,2.7,2.5,4,3.8c1.4,1.1,2.9,2.2,4.4,3.3
			c1.5,1,3.1,1.9,4.7,2.9c1.6,0.8,3.3,1.6,4.9,2.4c1.7,0.6,3.5,1.3,5.2,1.9c1.8,0.4,3.5,1,5.3,1.3c1.8,0.3,3.6,0.6,5.4,0.8
			c7.2,0.7,14.4-0.1,20.9-2.1c1.6-0.6,3.2-1.1,4.8-1.7c1.5-0.7,3.1-1.4,4.6-2.1c1.4-0.8,2.8-1.6,4.2-2.5c1.4-0.9,2.6-1.9,3.9-2.8
			c0.7-0.4,1.2-1,1.8-1.5c0.6-0.5,1.1-1,1.7-1.5c1.2-1,2.2-2.1,3.2-3.2c0.5-0.5,1-1.1,1.5-1.6c0.5-0.5,0.9-1.1,1.3-1.7
			c0.8-1.2,1.7-2.2,2.5-3.4c0.7-1.2,1.4-2.3,2.1-3.4c0.4-0.5,0.6-1.1,0.9-1.7c0.3-0.6,0.5-1.1,0.8-1.7s0.5-1.1,0.8-1.7
			c0.3-0.5,0.4-1.1,0.7-1.7c0.4-1.1,0.8-2.2,1.2-3.3c0.3-1,0.6-2.1,0.8-3.1c0.2-1,0.6-2,0.7-2.9c0.3-1.9,0.6-3.6,0.8-5.2
			c0.1-1.6,0.2-3,0.2-4.2c0-1.2-0.1-2.3-0.1-3.2c-0.1-1.7-0.1-2.7-0.1-2.7L246.2,177.4z"/>
	</g>
</g>
<g>
	<g>
		<path class="st1" d="M237.7,160.5c0,0,0.3,0.8,0.9,2.3c0.3,0.8,0.7,1.7,1.1,2.8c0.3,1.2,0.7,2.5,1.2,4c0.4,1.5,0.6,3.2,1,5
			c0.2,0.9,0.2,1.9,0.3,2.9c0.1,1,0.2,2,0.3,3.1c0,1.1,0,2.2,0,3.3c0,0.6,0,1.1,0,1.7c-0.1,0.6-0.1,1.2-0.2,1.8
			c-0.1,0.6-0.1,1.2-0.2,1.8c-0.1,0.6-0.1,1.3-0.3,1.9c-0.3,1.2-0.5,2.5-0.8,3.8c-0.3,1.3-0.8,2.6-1.2,3.9c-0.2,0.7-0.4,1.3-0.7,2
			c-0.3,0.6-0.5,1.3-0.8,1.9c-0.6,1.3-1.1,2.6-1.8,3.9c-0.4,0.7-0.7,1.3-1.1,2c-0.4,0.7-0.7,1.3-1.2,1.9c-0.9,1.2-1.7,2.6-2.6,3.8
			c-1,1.2-2,2.4-3.1,3.6c-1.1,1.1-2.3,2.2-3.4,3.4c-1.2,1.1-2.5,2.1-3.8,3.1c-5.3,3.9-11.6,7-18.3,8.7c-6.8,1.7-13.9,2.1-20.9,1
			c-1.7-0.4-3.5-0.7-5.2-1.1c-1.7-0.5-3.4-1-5-1.6c-1.6-0.7-3.2-1.3-4.8-2.1c-1.5-0.9-3.1-1.6-4.6-2.5c-1.4-1-2.9-1.9-4.2-3
			c-1.3-1.1-2.7-2.2-3.9-3.3c-1.2-1.2-2.4-2.4-3.5-3.6c-1-1.3-2.1-2.6-3.1-3.9c-3.9-5.4-6.5-11.3-8-17.1c-1.5-5.9-1.9-11.6-1.6-16.9
			c0.1-1.3,0.3-2.6,0.4-3.9c0.2-1.2,0.5-2.4,0.7-3.6c0.1-0.6,0.2-1.2,0.4-1.7c0.2-0.6,0.3-1.1,0.5-1.7c0.3-1.1,0.7-2.1,1-3.2
			c0.4-1,0.8-1.9,1.2-2.9c0.4-0.9,0.7-1.8,1.2-2.6c0.9-1.6,1.7-3.1,2.5-4.4c0.9-1.3,1.6-2.4,2.3-3.4c0.7-1,1.4-1.7,1.9-2.4
			c1.1-1.3,1.6-1.9,1.6-1.9s-0.6,0.7-1.6,1.9c-0.5,0.6-1.2,1.4-1.9,2.4c-0.7,1-1.4,2.1-2.3,3.4c-0.8,1.3-1.6,2.8-2.4,4.4
			c-0.4,0.8-0.7,1.7-1.2,2.6c-0.4,0.9-0.8,1.9-1.2,2.9c-0.3,1-0.6,2.1-1,3.2c-0.2,0.5-0.3,1.1-0.5,1.7c-0.1,0.6-0.2,1.2-0.3,1.7
			c-0.2,1.2-0.5,2.4-0.7,3.6c-0.1,1.2-0.3,2.5-0.4,3.8c-0.3,5.2,0.1,11,1.7,16.8c1.5,5.8,4.2,11.7,8.1,17c1,1.3,2.1,2.6,3.1,3.9
			c1.1,1.2,2.3,2.4,3.5,3.6c1.2,1.1,2.6,2.2,3.9,3.3c1.4,1,2.8,1.9,4.2,2.9c1.5,0.9,3,1.6,4.5,2.5c1.6,0.7,3.2,1.4,4.8,2
			c1.6,0.6,3.3,1,5,1.6c1.7,0.4,3.4,0.7,5.1,1.1c1.7,0.2,3.5,0.4,5.2,0.5c1.7,0,3.5,0,5.2,0c1.7-0.2,3.5-0.3,5.2-0.5
			c1.7-0.4,3.4-0.6,5.1-1c6.6-1.7,12.8-4.8,18-8.7c1.3-1,2.5-2,3.7-3.1c1.1-1.1,2.3-2.3,3.4-3.4c1-1.2,2-2.4,3-3.6
			c0.9-1.2,1.7-2.5,2.6-3.7c0.4-0.6,0.8-1.3,1.1-1.9c0.3-0.6,0.7-1.3,1-1.9c0.7-1.2,1.2-2.6,1.8-3.9c0.3-0.7,0.5-1.3,0.8-1.9
			c0.3-0.6,0.4-1.3,0.6-1.9c0.4-1.3,0.8-2.6,1.1-3.8c0.3-1.3,0.5-2.5,0.8-3.7c0.1-0.6,0.2-1.2,0.3-1.8c0.1-0.6,0.1-1.2,0.2-1.8
			c0.1-0.6,0.1-1.2,0.2-1.7c0.1-0.6,0-1.2,0-1.7c0-1.1,0-2.2,0-3.3c0-1-0.2-2.1-0.3-3c-0.1-1-0.1-1.9-0.3-2.8
			c-0.4-1.8-0.6-3.5-1-4.9c-0.4-1.4-0.8-2.7-1.2-3.9c-0.4-1.1-0.8-2-1.1-2.8c-0.6-1.5-1-2.3-1-2.3L237.7,160.5z"/>
	</g>
</g>
<g>
	<g>
		<path class="st1" d="M222.6,148.4c0,0,0.6,0.6,1.6,1.8c0.5,0.6,1.2,1.3,1.9,2.2c0.7,0.9,1.5,2,2.4,3.2c0.8,1.2,1.6,2.6,2.5,4.2
			c0.5,0.8,0.8,1.6,1.2,2.5c0.4,0.9,0.8,1.7,1.2,2.7c0.3,1,0.7,1.9,1.1,3c0.2,0.5,0.4,1,0.5,1.6c0.1,0.5,0.3,1.1,0.4,1.7
			c0.1,0.6,0.3,1.1,0.4,1.7c0.1,0.6,0.3,1.2,0.4,1.8c0.2,1.2,0.4,2.4,0.5,3.7c0.5,5,0.3,10.5-0.9,16.2c-0.4,1.4-0.7,2.8-1.1,4.2
			c-0.5,1.4-1,2.8-1.5,4.2c-0.6,1.4-1.3,2.7-2,4.1c-0.8,1.3-1.6,2.7-2.4,4c-3.5,5.3-8.1,10-13.5,13.7c-5.5,3.7-11.7,6.4-18.3,7.7
			c-1.7,0.2-3.3,0.5-5,0.7c-1.7,0.1-3.3,0.2-5,0.2c-1.7-0.1-3.3-0.1-5-0.3c-1.6-0.3-3.3-0.5-4.9-0.8c-1.6-0.4-3.2-0.8-4.8-1.3
			c-1.5-0.6-3.1-1.1-4.6-1.7c-1.4-0.7-2.9-1.3-4.3-2.1c-1.4-0.8-2.7-1.6-4-2.5c-5.2-3.5-9.5-7.9-12.7-12.7
			c-3.3-4.7-5.5-9.7-6.9-14.5c-0.3-1.2-0.6-2.4-0.9-3.6c-0.3-1.2-0.4-2.3-0.6-3.5c-0.1-0.6-0.2-1.1-0.2-1.7c0-0.6-0.1-1.1-0.1-1.6
			c-0.1-1.1-0.1-2.1-0.1-3.1c0-1,0.1-2,0.1-2.9c0.1-0.9,0.1-1.9,0.2-2.7c0.3-1.7,0.5-3.3,0.8-4.8c0.4-1.4,0.7-2.7,1-3.8
			c0.3-1.1,0.7-2,0.9-2.7c0.5-1.5,0.8-2.3,0.8-2.3s-0.3,0.8-0.8,2.3c-0.2,0.7-0.6,1.6-0.9,2.7c-0.3,1.1-0.6,2.4-0.9,3.8
			c-0.3,1.4-0.5,3-0.7,4.8c-0.1,0.9-0.1,1.8-0.2,2.7c0,0.9-0.1,1.9-0.1,2.9c0.1,1,0.1,2.1,0.2,3.1c0,0.5,0,1.1,0.1,1.6
			c0.1,0.5,0.2,1.1,0.3,1.7c0.2,1.1,0.3,2.3,0.6,3.4c0.3,1.2,0.6,2.3,0.9,3.5c1.4,4.8,3.7,9.7,7,14.4c3.2,4.7,7.6,9.1,12.7,12.5
			c1.3,0.9,2.7,1.6,4,2.4c1.4,0.8,2.9,1.4,4.3,2.1c1.5,0.6,3,1.1,4.5,1.7c1.5,0.5,3.1,0.8,4.7,1.2c1.6,0.3,3.2,0.5,4.8,0.7
			c1.6,0.1,3.3,0.2,5,0.3c1.6,0,3.3-0.2,4.9-0.2c1.6-0.2,3.3-0.5,4.9-0.7c1.6-0.4,3.2-0.8,4.8-1.2c1.6-0.6,3.2-1.1,4.7-1.7
			c1.5-0.7,3-1.4,4.4-2.2c1.4-0.9,2.8-1.7,4.2-2.6c5.3-3.7,9.9-8.4,13.3-13.6c0.8-1.3,1.6-2.6,2.3-3.9c0.7-1.4,1.3-2.8,1.9-4.1
			c0.5-1.4,1-2.8,1.5-4.1c0.4-1.4,0.7-2.8,1.1-4.2c0.2-0.7,0.3-1.4,0.4-2.1c0.1-0.7,0.2-1.4,0.3-2.1c0.3-1.3,0.3-2.7,0.3-4.1
			c0-0.7,0.1-1.3,0.1-2c0-0.6,0-1.3-0.1-1.9c-0.1-1.3-0.1-2.6-0.2-3.8c-0.2-1.2-0.4-2.4-0.5-3.6c-0.1-0.6-0.2-1.2-0.4-1.7
			c-0.1-0.6-0.3-1.1-0.4-1.7c-0.1-0.5-0.3-1.1-0.4-1.6c-0.1-0.5-0.4-1-0.5-1.5c-0.4-1-0.7-2-1.1-3c-0.4-0.9-0.8-1.8-1.2-2.6
			c-0.4-0.8-0.7-1.7-1.2-2.4c-0.9-1.5-1.7-2.9-2.5-4.1c-0.9-1.1-1.6-2.2-2.3-3.1c-0.7-0.9-1.4-1.6-1.9-2.1c-1.1-1.2-1.6-1.8-1.6-1.8
			L222.6,148.4z"/>
	</g>
</g>
<g>
	<g>
		<path class="st1" d="M205.1,141.5c0,0,0.7,0.4,2,1.1c0.6,0.4,1.5,0.7,2.4,1.3c0.9,0.6,2,1.3,3.1,2.1c1.1,0.8,2.3,1.8,3.6,2.9
			c0.7,0.5,1.2,1.2,1.9,1.8c0.6,0.7,1.3,1.3,2,2c0.6,0.7,1.2,1.5,1.9,2.3c0.3,0.4,0.7,0.8,1,1.2c0.3,0.4,0.6,0.9,0.9,1.3
			c0.3,0.5,0.6,0.9,0.9,1.4c0.3,0.5,0.6,0.9,0.9,1.4c0.5,1,1.1,2,1.7,3.1c2.1,4.3,3.7,9.3,4.4,14.7c0.1,1.4,0.3,2.7,0.4,4.2
			c0,1.4,0,2.8,0,4.3c-0.1,1.4-0.3,2.9-0.4,4.3c-0.2,1.4-0.6,2.9-0.8,4.4c-1.4,5.8-4,11.5-7.6,16.6c-3.7,5.1-8.4,9.5-13.9,12.8
			c-1.4,0.7-2.8,1.5-4.2,2.2c-1.5,0.6-2.9,1.2-4.4,1.8c-1.5,0.4-3,0.9-4.5,1.4c-1.6,0.3-3.1,0.7-4.6,0.9c-1.6,0.1-3.1,0.4-4.7,0.4
			c-1.6,0-3.1,0.1-4.6,0c-1.5-0.2-3-0.2-4.5-0.5c-1.5-0.3-3-0.6-4.4-0.9c-5.8-1.5-11-4-15.5-7.2c-4.4-3.2-8.1-6.9-10.9-10.7
			c-0.7-1-1.3-2-2-2.9c-0.6-1-1.1-2-1.6-2.9c-0.3-0.5-0.5-0.9-0.8-1.4c-0.2-0.5-0.4-1-0.6-1.4c-0.4-0.9-0.8-1.9-1.2-2.8
			c-0.3-0.9-0.6-1.8-0.8-2.7c-0.2-0.9-0.6-1.7-0.7-2.5c-0.3-1.6-0.7-3.1-0.9-4.5c-0.1-1.4-0.3-2.6-0.4-3.7c-0.1-1.1,0-2-0.1-2.7
			c0-1.5,0-2.3,0-2.3s0,0.8,0,2.3c0,0.7,0,1.7,0.1,2.7c0.1,1.1,0.2,2.3,0.4,3.7c0.2,1.4,0.6,2.9,0.9,4.5c0.2,0.8,0.5,1.6,0.7,2.5
			c0.3,0.9,0.5,1.8,0.9,2.7c0.4,0.9,0.8,1.8,1.2,2.7c0.2,0.5,0.4,1,0.6,1.4c0.3,0.5,0.5,0.9,0.8,1.4c0.5,0.9,1,1.9,1.6,2.9
			c0.6,0.9,1.3,1.9,2,2.9c2.8,3.8,6.5,7.5,10.9,10.6c4.4,3.1,9.7,5.6,15.4,7c1.4,0.3,2.9,0.6,4.4,0.9c1.5,0.2,3,0.3,4.5,0.5
			c1.5,0.1,3,0,4.6,0c1.5-0.1,3.1-0.3,4.6-0.4c1.5-0.2,3-0.6,4.6-0.9c1.5-0.4,3-0.9,4.5-1.4c1.4-0.6,2.9-1.2,4.3-1.8
			c1.4-0.7,2.8-1.5,4.2-2.2c5.4-3.2,10.1-7.7,13.6-12.7c3.6-5,6.1-10.7,7.4-16.4c0.3-1.4,0.6-2.9,0.8-4.3c0.1-1.5,0.3-2.9,0.4-4.3
			c0-1.4,0-2.8,0-4.2c-0.1-1.4-0.3-2.7-0.4-4.1c0-0.7-0.2-1.3-0.3-2c-0.1-0.6-0.3-1.3-0.4-1.9c-0.2-1.3-0.6-2.5-1-3.7
			c-0.2-0.6-0.4-1.2-0.6-1.8c-0.2-0.6-0.5-1.1-0.7-1.7c-0.5-1.1-0.9-2.3-1.4-3.3c-0.6-1-1.1-2-1.7-3c-0.3-0.5-0.6-1-0.9-1.4
			c-0.3-0.5-0.6-0.9-0.9-1.3c-0.3-0.4-0.6-0.9-0.9-1.3c-0.3-0.4-0.7-0.8-1-1.2c-0.7-0.8-1.3-1.5-1.9-2.3c-0.6-0.7-1.3-1.3-1.9-1.9
			c-0.7-0.6-1.2-1.3-1.9-1.8c-1.3-1-2.4-2-3.6-2.8c-1.1-0.7-2.2-1.4-3-2c-0.9-0.6-1.7-0.9-2.4-1.3c-1.3-0.7-2-1.1-2-1.1L205.1,141.5
			z"/>
	</g>
</g>
<g>
	<g>
		<path class="st1" d="M188.3,139.9c0,0,0.7,0.1,2.1,0.3c0.7,0.1,1.6,0.2,2.6,0.4c1,0.2,2.2,0.5,3.5,0.8c1.3,0.4,2.7,0.9,4.2,1.4
			c0.8,0.3,1.5,0.7,2.3,1c0.8,0.4,1.6,0.7,2.4,1.2c0.8,0.5,1.6,0.9,2.4,1.4c0.9,0.5,1.7,1.1,2.5,1.7c0.4,0.3,0.8,0.6,1.3,0.9
			c0.4,0.3,0.9,0.6,1.3,1c0.8,0.7,1.6,1.5,2.5,2.2c3.2,3.2,6.3,7.1,8.8,11.7c0.6,1.2,1.2,2.4,1.7,3.6c0.5,1.3,0.9,2.5,1.4,3.8
			c0.3,1.3,0.7,2.6,1,4c0.3,1.4,0.4,2.8,0.7,4.2c0.6,5.7,0.2,11.6-1.4,17.3c-1.6,5.8-4.4,11.2-8.2,15.9c-1,1.1-2,2.3-3,3.4
			c-1.1,1-2.2,2.1-3.3,3.1c-1.2,0.9-2.4,1.8-3.6,2.7c-1.3,0.8-2.5,1.6-3.8,2.3c-1.3,0.6-2.7,1.3-4,1.9c-1.4,0.5-2.7,1.1-4.1,1.5
			c-1.4,0.3-2.8,0.8-4.2,1c-1.4,0.2-2.8,0.5-4.2,0.6c-5.6,0.6-11.2,0-16.2-1.4c-5-1.4-9.5-3.5-13.2-6c-0.9-0.7-1.8-1.3-2.7-2
			c-0.9-0.7-1.6-1.4-2.4-2.1c-0.4-0.3-0.8-0.7-1.1-1c-0.4-0.4-0.7-0.7-1-1.1c-0.7-0.7-1.3-1.4-1.9-2.1c-0.6-0.7-1.1-1.4-1.6-2.1
			c-0.5-0.7-1-1.3-1.5-2c-0.8-1.4-1.6-2.6-2.2-3.7c-0.6-1.2-1.1-2.2-1.5-3.2c-0.4-0.9-0.7-1.8-0.9-2.4c-0.5-1.3-0.7-2-0.7-2
			s0.3,0.7,0.8,2c0.3,0.7,0.5,1.5,0.9,2.4c0.4,0.9,1,2,1.5,3.2c0.6,1.2,1.4,2.4,2.3,3.7c0.4,0.7,1,1.3,1.5,2c0.5,0.7,1,1.4,1.6,2.1
			c0.6,0.7,1.3,1.4,1.9,2.1c0.3,0.4,0.7,0.7,1,1.1c0.4,0.3,0.8,0.7,1.1,1c0.8,0.7,1.5,1.4,2.4,2.1c0.9,0.6,1.8,1.3,2.7,1.9
			c3.8,2.5,8.2,4.6,13.2,5.9c5,1.4,10.5,1.9,16.1,1.3c1.4-0.2,2.8-0.4,4.2-0.6c1.4-0.3,2.8-0.7,4.2-1.1c1.4-0.4,2.7-1,4.1-1.5
			c1.3-0.6,2.6-1.3,4-1.9c1.3-0.7,2.5-1.5,3.8-2.3c1.2-0.9,2.4-1.8,3.6-2.7c1.1-1,2.2-2,3.3-3c1-1.1,2-2.2,3-3.3
			c3.7-4.6,6.5-10.1,8-15.8c1.6-5.6,2-11.6,1.3-17.1c-0.2-1.4-0.4-2.7-0.7-4.1c-0.4-1.3-0.7-2.7-1-4c-0.5-1.3-0.9-2.5-1.4-3.7
			c-0.5-1.2-1.1-2.4-1.7-3.5c-0.3-0.6-0.6-1.1-0.9-1.7c-0.3-0.5-0.7-1.1-1-1.6c-0.6-1.1-1.4-2-2.1-3c-0.4-0.5-0.7-1-1.1-1.4
			c-0.3-0.4-0.8-0.9-1.2-1.3c-0.8-0.8-1.5-1.7-2.4-2.5c-0.8-0.7-1.7-1.5-2.5-2.2c-0.4-0.4-0.8-0.7-1.2-1c-0.4-0.3-0.8-0.6-1.2-0.9
			c-0.8-0.6-1.6-1.2-2.5-1.6c-0.8-0.5-1.7-1-2.5-1.4c-0.8-0.4-1.6-0.7-2.4-1.1c-0.8-0.3-1.5-0.7-2.2-1c-1.5-0.5-2.8-1-4.1-1.3
			c-1.3-0.3-2.4-0.6-3.4-0.8c-1-0.2-1.9-0.3-2.6-0.4c-1.4-0.2-2.1-0.3-2.1-0.3L188.3,139.9z"/>
	</g>
</g>
</svg>
